# xmcd CD database file
#
# Track frame offsets:
#	150
#	23491
#	53486
#	85680
#	106511
#	121694
#	153596
#	177637
#	203833
#	227551
#	247712
#	281161
#	308958
#
# Disc length: 4447 seconds
#
# Revision: 0
# Processed by: cddbd v1.5.2PL0 Copyright (c) Steve Scherf et al.
# Submitted via: CDex 1.51
#
DISCID=96115d0d
DTITLE=Morita, Mariko - Color of Life
DYEAR=2014
DGENRE=Jazz
TTITLE0=Look to the Sky
TTITLE1=Sabia
TTITLE2=Berimbau
TTITLE3=Brisa Du Mar
TTITLE4=Matsuri-Bayashi
TTITLE5=Autumn in NewYork
TTITLE6=I'm Getting Sentimental Over You
TTITLE7=Snow
TTITLE8=Winter Moon
TTITLE9=Bluesette
TTITLE10=Ringo Oiwake
TTITLE11=Georgia On My Mind
TTITLE12=My One and Only Love
EXTD=YEAR: 2014
EXTT0=
EXTT1=
EXTT2=
EXTT3=
EXTT4=
EXTT5=
EXTT6=
EXTT7=
EXTT8=
EXTT9=
EXTT10=
EXTT11=
EXTT12=
PLAYORDER=
